<?xml version="1.0" standalone="no"?>
<!DOCTYPE svg PUBLIC "-//W3C//DTD SVG 1.1//EN" "http://www.w3.org/Graphics/SVG/1.1/DTD/svg11.dtd">
<svg xmlns="http://www.w3.org/2000/svg" viewBox="0 0 272 73" width="272" height="73">
  <path d="M 49.00 57.00 L 49.00 71.00 L 71.00 71.00 L 71.00 57.00 Z M 242.00 47.00 L 242.00 66.00 L 246.00 70.00 L 254.00 70.00 L 256.00 68.00 L 257.00 70.00 L 260.00 70.00 L 260.00 47.00 L 257.00 47.00 L 257.00 62.00 L 253.00 67.00 L 248.00 67.00 L 245.00 64.00 L 245.00 47.00 Z M 215.00 47.00 L 212.00 50.00 L 212.00 54.00 L 215.00 54.00 L 215.00 52.00 L 217.00 50.00 L 223.00 50.00 L 225.00 52.00 L 226.00 56.00 L 225.00 57.00 L 215.00 57.00 L 211.00 60.00 L 211.00 67.00 L 214.00 70.00 L 223.00 70.00 L 227.00 67.00 L 229.00 70.00 L 232.00 70.00 L 232.00 67.00 L 229.00 64.00 L 228.00 49.00 L 225.00 47.00 Z M 214.00 62.00 L 219.00 59.00 L 222.00 59.00 L 226.00 61.00 L 225.00 65.00 L 220.00 68.00 L 216.00 67.00 L 214.00 65.00 Z M 155.00 47.00 L 150.00 52.00 L 150.00 65.00 L 155.00 70.00 L 164.00 70.00 L 169.00 66.00 L 169.00 51.00 L 164.00 47.00 Z M 157.00 50.00 L 163.00 50.00 L 166.00 54.00 L 166.00 63.00 L 163.00 67.00 L 157.00 67.00 L 153.00 62.00 L 153.00 55.00 Z M 125.00 47.00 L 120.00 52.00 L 120.00 65.00 L 125.00 70.00 L 135.00 70.00 L 139.00 66.00 L 139.00 61.00 L 136.00 61.00 L 136.00 64.00 L 133.00 67.00 L 127.00 67.00 L 123.00 62.00 L 123.00 55.00 L 127.00 50.00 L 133.00 50.00 L 136.00 53.00 L 136.00 56.00 L 139.00 56.00 L 139.00 51.00 L 135.00 47.00 Z M 93.00 48.00 L 90.00 53.00 L 90.00 65.00 L 91.00 67.00 L 95.00 70.00 L 106.00 70.00 L 109.00 67.00 L 109.00 63.00 L 107.00 63.00 L 104.00 67.00 L 96.00 67.00 L 94.00 65.00 L 93.00 61.00 L 94.00 60.00 L 109.00 60.00 L 109.00 51.00 L 108.00 49.00 L 105.00 47.00 L 95.00 47.00 Z M 93.00 55.00 L 94.00 52.00 L 99.00 49.00 L 103.00 50.00 L 106.00 53.00 L 105.00 58.00 L 94.00 58.00 Z M 182.00 38.00 L 182.00 70.00 L 186.00 69.00 L 187.00 70.00 L 196.00 70.00 L 200.00 65.00 L 200.00 52.00 L 196.00 47.00 L 187.00 47.00 L 186.00 48.00 L 185.00 47.00 L 185.00 38.00 Z M 188.00 50.00 L 194.00 50.00 L 197.00 54.00 L 197.00 63.00 L 194.00 67.00 L 188.00 67.00 L 185.00 64.00 L 185.00 53.00 Z M 49.00 29.00 L 49.00 43.00 L 71.00 43.00 L 71.00 29.00 Z M 240.00 8.00 L 240.00 31.00 L 243.00 31.00 L 243.00 12.00 L 246.00 10.00 L 249.00 12.00 L 249.00 31.00 L 252.00 31.00 L 252.00 14.00 L 255.00 10.00 L 259.00 14.00 L 259.00 31.00 L 262.00 31.00 L 262.00 12.00 L 259.00 8.00 L 253.00 8.00 L 252.00 9.00 L 250.00 8.00 L 244.00 8.00 L 243.00 9.00 Z M 212.00 8.00 L 212.00 27.00 L 216.00 31.00 L 224.00 31.00 L 226.00 29.00 L 227.00 31.00 L 230.00 31.00 L 230.00 8.00 L 227.00 8.00 L 227.00 23.00 L 223.00 28.00 L 218.00 28.00 L 215.00 25.00 L 215.00 8.00 Z M 155.00 8.00 L 150.00 13.00 L 150.00 26.00 L 155.00 31.00 L 165.00 31.00 L 169.00 27.00 L 169.00 22.00 L 166.00 22.00 L 166.00 25.00 L 163.00 28.00 L 157.00 28.00 L 153.00 23.00 L 153.00 16.00 L 157.00 11.00 L 163.00 11.00 L 166.00 14.00 L 166.00 17.00 L 169.00 17.00 L 169.00 12.00 L 165.00 8.00 Z M 123.00 9.00 L 120.00 14.00 L 120.00 26.00 L 121.00 28.00 L 125.00 31.00 L 136.00 31.00 L 139.00 28.00 L 139.00 24.00 L 137.00 24.00 L 134.00 28.00 L 126.00 28.00 L 124.00 26.00 L 123.00 22.00 L 124.00 21.00 L 139.00 21.00 L 139.00 12.00 L 138.00 10.00 L 135.00 8.00 L 125.00 8.00 Z M 123.00 16.00 L 124.00 13.00 L 129.00 10.00 L 133.00 11.00 L 136.00 14.00 L 135.00 19.00 L 124.00 19.00 Z M 185.00 1.00 L 185.00 8.00 L 184.00 9.00 L 178.00 9.00 L 178.00 11.00 L 185.00 13.00 L 185.00 27.00 L 186.00 29.00 L 189.00 31.00 L 198.00 31.00 L 202.00 27.00 L 202.00 20.00 L 199.00 20.00 L 199.00 25.00 L 196.00 28.00 L 191.00 28.00 L 188.00 24.00 L 188.00 13.00 L 189.00 12.00 L 200.00 12.00 L 200.00 9.00 L 189.00 9.00 L 188.00 8.00 L 188.00 1.00 Z M 94.00 1.00 L 94.00 8.00 L 93.00 9.00 L 87.00 9.00 L 87.00 11.00 L 94.00 13.00 L 94.00 27.00 L 95.00 29.00 L 98.00 31.00 L 107.00 31.00 L 111.00 27.00 L 111.00 20.00 L 108.00 20.00 L 108.00 25.00 L 105.00 28.00 L 100.00 28.00 L 97.00 24.00 L 97.00 13.00 L 98.00 12.00 L 109.00 12.00 L 109.00 9.00 L 98.00 9.00 L 97.00 8.00 L 97.00 1.00 Z M 71.00 1.00 L 1.00 1.00 L 1.00 15.00 L 19.00 15.00 L 20.00 16.00 L 20.00 71.00 L 35.00 71.00 L 35.00 16.00 L 36.00 15.00 L 71.00 15.00 Z" fill="#FFFFFF" fill-rule="evenodd"/>
</svg>